<svg width="1482" height="166" viewBox="0 0 1482 166" fill="none" xmlns="http://www.w3.org/2000/svg">
<path d="M1482 0H0V166H1482V0Z" fill="#302F2F"/>
<path d="M726.683 158.738L676.414 67.1455L656.955 158.738H594.523L629.388 0.9729H703.981L751.412 92.9687L770.871 0.9729H833.303L798.843 158.738H726.683Z" fill="white"/>
<path d="M532.498 158.738L503.311 98.6177L475.744 117.178L466.823 157.931H403.988L438.041 0.9729H501.283L488.31 55.8476L560.875 0.9729H647.632L560.065 60.2859L622.092 158.738H532.498Z" fill="white"/>
<path d="M324.935 159.545L274.666 67.9524L255.207 159.545H192.775L227.639 1.77979H298.583L350.069 93.3722L369.123 1.77979H431.96L397.095 159.545H324.935Z" fill="#92C4D0"/>
<path d="M1376.13 159.545L1325.86 67.9524L1306.4 159.545H1243.56L1278.83 1.77979H1349.78L1398.83 93.3722L1418.29 1.77979H1479.91L1445.05 159.545H1376.13Z" fill="white"/>
<path d="M1209.92 159.545H1142.62L1138.97 68.7594L1097.22 159.545H1034.79L1022.22 1.77979H1083.43L1083.03 104.67L1129.24 1.77979H1180.32L1181.94 104.67L1224.92 1.77979H1283.3L1209.92 159.545Z" fill="white"/>
<path d="M24.5342 1.77967C46.0204 1.77967 67.9118 1.77967 89.398 1.77967C88.9924 3.39364 88.9924 5.41111 88.5871 7.02508C81.6954 37.2869 75.2089 67.5487 68.3171 97.4072C66.6957 103.863 66.6957 111.529 71.1551 116.775C76.4252 122.423 85.3439 123.634 93.0465 124.037C102.776 124.037 112.911 123.634 121.424 118.389C129.532 113.95 133.586 105.073 135.613 96.5999C142.505 64.7241 149.802 33.252 156.694 1.37622C178.586 1.37622 200.071 1.37622 221.963 1.37622C214.666 34.059 207.369 67.1451 200.071 99.8279C196.423 116.775 187.909 134.125 173.721 145.019C159.532 155.913 141.694 160.352 123.857 162.773C107.641 164.79 91.0196 165.194 74.3981 164.79C58.5876 163.983 42.7771 162.773 28.1828 157.527C18.0479 153.896 8.31833 147.036 3.85894 137.353C-1.41122 126.055 -0.600433 113.143 2.23735 101.442C9.5345 68.7591 16.8317 35.2693 24.5342 1.77967Z" fill="#92C4D0"/>
<path d="M910.734 0.568742C926.951 -0.64173 943.167 0.165227 958.976 2.18268C973.572 4.20013 988.165 7.02455 1001.14 15.0944C1007.62 19.5328 1013.7 24.7781 1017.76 31.6375C1023.03 40.5144 1025.06 51.0052 1025.06 61.4959C1024.65 74.811 1021.81 88.5297 1016.95 101.038C1012.49 112.739 1006.81 124.44 998.301 134.124C987.355 147.036 972.759 156.316 956.543 160.755C943.572 164.386 930.193 165.597 916.815 166C898.166 166 879.924 164.79 861.681 160.351C846.274 156.72 830.871 149.053 822.358 135.738C813.032 121.212 813.032 103.055 816.277 86.9157C819.925 69.1622 826.41 51.0052 837.761 36.4794C845.869 25.9887 856.005 17.1118 868.166 11.463C881.545 4.20016 896.141 1.37572 910.734 0.568742ZM920.868 39.7074C915.6 40.5144 910.734 41.7248 906.274 44.1458C895.733 49.7945 888.843 59.8819 884.382 70.7762C880.329 81.6703 877.492 93.3717 879.112 105.073C880.329 113.546 886.41 120.809 894.518 123.633C904.246 126.861 914.787 127.265 924.518 125.247C936.274 122.423 946.004 114.353 951.68 103.862C957.355 93.3717 961.003 81.267 961.813 69.1622C962.218 60.6889 959.788 51.0052 952.085 45.7598C942.759 39.3038 931.408 38.9004 920.868 39.7074Z" fill="white"/>
</svg>
